Coordinates
version=1
nRows=10
nColumns=40
inDegrees=yes

Units are S.I. units (second, meters, Newtons, ...)
If the header above contains a line with 'inDegrees', this indicates whether rotational values are in degrees (yes) or radians (no).

endheader
time	pelvis_tilt	pelvis_list	pelvis_rotation	pelvis_tx	pelvis_ty	pelvis_tz	hip_flexion_r	hip_adduction_r	hip_rotation_r	knee_angle_r	knee_angle_r_beta	ankle_angle_r	subtalar_angle_r	mtp_angle_r	hip_flexion_l	hip_adduction_l	hip_rotation_l	knee_angle_l	knee_angle_l_beta	ankle_angle_l	subtalar_angle_l	mtp_angle_l	lumbar_extension	lumbar_bending	lumbar_rotation	arm_flex_r	arm_add_r	arm_rot_r	elbow_flex_r	pro_sup_r	wrist_flex_r	wrist_dev_r	arm_flex_l	arm_add_l	arm_rot_l	elbow_flex_l	pro_sup_l	wrist_flex_l	wrist_dev_l
      0.90999997	     -0.34997195	     20.19068495	    -88.18142170	      0.02940437	      1.10165375	      0.17085273	     43.44625734	     -1.41251009	      7.14725162	     44.21150699	      0.77163636	      2.19545033	      0.00000000	      0.00000000	     32.65408082	      5.16399990	      5.35265211	     26.26016315	      0.45832631	      7.15255375	      0.00000000	      0.00000000	     12.61462869	      2.31549185	     -6.65969134	     43.11350868	     16.20274154	     74.26499018	    111.20845637	     32.69562718	      0.00000000	      0.00000000	     29.22305321	      7.14773268	     71.32457281	    127.41673763	     34.58015060	      0.00000000	      0.00000000
      0.91999996	     -0.41368465	     20.14507927	    -87.98039429	      0.03051479	      1.10024146	      0.17177055	     45.00626978	     -1.38028176	      7.23754914	     46.82065907	      0.81717466	      1.41009148	      0.00000000	      0.00000000	     32.97046296	      5.24890884	      5.30867936	     27.06124497	      0.47230782	      7.52990230	      0.00000000	      0.00000000	     12.37233424	      2.32609952	     -6.83604963	     43.12979044	     16.08164625	     74.35004217	    111.23083901	     32.77187438	      0.00000000	      0.00000000	     29.21451975	      7.26905171	     71.38145823	    127.17791416	     34.63997226	      0.00000000	      0.00000000
      0.92999995	     -0.56569303	     20.10586888	    -87.74835074	      0.03152356	      1.09899048	      0.17281358	     46.47763458	     -1.22846552	      7.30536587	     49.18354913	      0.85841487	      0.85318826	      0.00000000	      0.00000000	     33.26716008	      5.24697082	      5.33655213	     27.82370017	      0.48561518	      7.88906528	      0.00000000	      0.00000000	     12.15181430	      2.43130742	     -7.03709550	     43.06114440	     15.92176659	     74.44782356	    111.28572377	     32.84780920	      0.00000000	      0.00000000	     29.10733713	      7.41414743	     71.40553159	    126.91944873	     34.69860173	      0.00000000	      0.00000000
      0.93999994	     -0.74679112	     20.07638151	    -87.51384049	      0.03245295	      1.09787512	      0.17398465	     47.89192583	     -1.03941294	      7.31348969	     51.28743170	      0.89513455	      0.71319914	      0.00000000	      0.00000000	     33.53702200	      5.19673715	      5.34725712	     28.53525575	      0.49803417	      8.26014723	      0.00000000	      0.00000000	     11.95410359	      2.56230819	     -7.25461737	     42.97089574	     15.74492850	     74.56729447	    111.35063115	     32.93778351	      0.00000000	      0.00000000	     28.91517595	      7.55682262	     71.36310158	    126.64232008	     34.78053854	      0.00000000	      0.00000000
      0.94999999	     -0.94137863	     20.01307893	    -87.31742158	      0.03321549	      1.09701918	      0.17535070	     49.17224922	     -0.81857379	      7.24583895	     53.06661762	      0.92618720	      0.99624755	      0.00000000	      0.00000000	     33.67731228	      5.09088321	      5.32409785	     29.08019804	      0.50754520	      8.54921380	      0.00000000	      0.00000000	     11.71848117	      2.73404715	     -7.45018944	     42.85648841	     15.59250389	     74.70863342	    111.39428642	     33.02252469	      0.00000000	      0.00000000	     28.65580708	      7.68264030	     71.30511377	    126.40680090	     34.86807631	      0.00000000	      0.00000000
      0.95999998	     -1.09449219	     19.97364143	    -87.15852752	      0.03388506	      1.09632975	      0.17683579	     50.36583257	     -0.62543710	      7.17305431	     54.49045927	      0.95103793	      1.33006442	      0.00000000	      0.00000000	     33.75022674	      5.00538997	      5.29500153	     29.48441817	      0.51460018	      8.77171493	      0.00000000	      0.00000000	     11.51399137	      2.86127039	     -7.65785968	     42.73384878	     15.48203258	     74.85852205	    111.40049222	     33.09998758	      0.00000000	      0.00000000	     28.35076007	      7.76877749	     71.21340935	    126.24155449	     34.96499296	      0.00000000	      0.00000000
      0.96999997	     -1.17348441	     19.94805220	    -87.08124694	      0.03442858	      1.09579274	      0.17840669	     51.49704969	     -0.45655373	      7.13932007	     55.59069838	      0.97024072	      1.45193722	      0.00000000	      0.00000000	     33.78621681	      4.94104475	      5.14643666	     29.79361588	      0.51999669	      8.95957866	      0.00000000	      0.00000000	     11.32178252	      2.92311367	     -7.85359113	     42.61487700	     15.41439807	     74.99862466	    111.38559442	     33.16040203	      0.00000000	      0.00000000	     28.04175980	      7.81827317	     71.11468403	    126.15321001	     35.05352235	      0.00000000	      0.00000000
      0.97999996	     -1.28815022	     19.86514332	    -87.04838715	      0.03476972	      1.09556777	      0.18018125	     52.43115936	     -0.17891917	      7.16047904	     56.28882511	      0.98242533	      1.38331112	      0.00000000	      0.00000000	     33.61995824	      4.81535505	      5.06375992	     29.87155856	      0.52135705	      9.02205674	      0.00000000	      0.00000000	     11.06616505	      3.03625498	     -8.00255855	     42.48651492	     15.34809831	     75.08259085	    111.35531775	     33.17833150	      0.00000000	      0.00000000	     27.83297097	      7.78604072	     71.10759608	    126.09356172	     35.07920198	      0.00000000	      0.00000000
      0.98999995	     -1.22821458	     19.99449410	    -87.07874700	      0.03504302	      1.09514337	      0.18186203	     53.58116968	     -0.07772217	      7.18007388	     56.74161266	      0.99032796	      1.14097237	      0.00000000	      0.00000000	     33.74022485	      4.83651821	      4.79732178	     30.06251757	      0.52468991	      9.22475409	      0.00000000	      0.00000000	     11.05975878	      2.93832000	     -8.16451965	     42.40882551	     15.41319775	     75.22951306	    111.27937405	     33.26484503	      0.00000000	      0.00000000	     27.44344159	      7.75776642	     70.86916686	    126.15615670	     35.24360544	      0.00000000	      0.00000000
      0.99999994	     -1.23454401	     19.90951961	    -87.06785237	      0.03533129	      1.09526444	      0.18373327	     54.25763985	      0.07123003	      7.16213520	     56.65334419	      0.98878739	      1.13814547	      0.00000000	      0.00000000	     33.52282214	      4.83452285	      4.75556970	     30.07979817	      0.52499152	      9.23488397	      0.00000000	      0.00000000	     10.76264963	      2.91722117	     -8.25622623	     42.38060129	     15.36901932	     75.23106866	    111.25397659	     33.26731548	      0.00000000	      0.00000000	     27.42246376	      7.74391674	     70.86499424	    126.14060178	     35.24793683	      0.00000000	      0.00000000
